<svg width="85" height="85" viewBox="0 0 85 85" fill="none" xmlns="http://www.w3.org/2000/svg">
<circle cx="42.5" cy="42.5" r="42.5" fill="#FFD2B1"/>
<path d="M20.3999 64.1749V34.4249H28.4749V20.3999H52.6999L65.0249 31.4499V64.1749H47.1749H20.3999Z" fill="#FFD2B1"/>
<path d="M47.1749 64.1749H20.3999V34.4249H28.4749M47.1749 64.1749V34.4249H28.4749M47.1749 64.1749H65.0249V31.4499M65.0249 31.4499H52.6999V20.3999M65.0249 31.4499L52.6999 20.3999M52.6999 20.3999H28.4749V34.4249M33.1499 24.6499H47.1749M33.1499 28.4749H47.1749M52.6999 43.3499L59.0749 35.2749C61.7949 33.9149 62.7582 34.1416 62.8999 34.4249C62.5599 36.4649 62.4749 36.6916 62.4749 36.5499L55.2499 45.4749M52.6999 43.3499L49.7249 49.7249L55.2499 45.4749M52.6999 43.3499L55.2499 45.4749M56.9499 51.4249V59.4999M58.6499 53.1249C57.7999 52.5582 55.8449 51.7649 54.8249 53.1249C54.6832 53.8332 54.7399 55.2499 56.0999 55.2499C57.4599 55.2499 58.6499 56.3832 59.0749 56.9499C58.7916 57.6582 57.7149 58.8199 55.6749 57.7999L54.3999 57.3749M23.7999 37.8249H44.6249V44.6249H23.7999V37.8249ZM23.7999 46.7499V50.1499H26.3499V46.7499H23.7999ZM29.7499 47.1749V50.1499H32.7249V47.1749H29.7499ZM35.6999 46.7499V50.1499H38.6749V46.7499H35.6999ZM41.2249 46.7499V50.1499H44.6249V46.7499H41.2249ZM23.3749 52.6999V56.5249H27.1999V52.6999H23.3749ZM29.7499 52.6999V56.5249H32.7249V52.6999H29.7499ZM35.6999 52.6999V56.5249H38.6749V52.6999H35.6999ZM41.2249 52.6999V62.0499H44.6249V52.6999H41.2249ZM35.2749 58.6499V61.6249H38.6749V58.6499H35.2749ZM29.7499 58.6499V62.0499H32.7249V58.6499H29.7499ZM23.3749 58.6499V62.0499H27.1999V58.6499H23.3749Z" stroke="white" stroke-width="2"/>
</svg>
