<svg width="85" height="85" viewBox="0 0 85 85" fill="none" xmlns="http://www.w3.org/2000/svg">
<circle cx="42.5" cy="42.5" r="42.5" fill="#9E90CD"/>
<path d="M34 23.6111L23.8365 33.3371C23.5393 33.9965 23.3016 35.5461 24.728 36.4692C25.3224 36.744 26.7607 37.1286 27.7592 36.4692L34 32.0183V36.4692C33.465 36.6341 32.1812 36.8649 31.3254 36.4692C31.0876 36.3593 30.4695 35.9417 29.8989 35.1504" stroke="white" stroke-width="1.5"/>
<path d="M61.8528 13.6982L68.9446 24.489L65.2214 26.5519C65.0251 26.5958 64.5438 26.5231 63.9803 25.9887L56.7111 30.5191C56.5338 30.7306 55.4701 31.0269 52.6333 30.5191L46.9598 28.6792V39.2469H61.4981V43.6901H58.8387V66.3824V67.0171H61.4981V71.7777H19.8335V66.3824H22.3156V43.6901H20.3654V39.2469H33.6626V21.4739C33.6626 20.3314 34.2536 20.1515 34.5491 20.2044H46.9598V24.1596L41.6409 22.9021C39.2297 23.7907 39.8089 25.7056 40.3999 26.5519L44.3004 27.8168L46.9598 28.6792L52.6333 30.5191C55.4701 31.0269 56.5338 30.7306 56.7111 30.5191L63.9803 25.9887C63.8649 25.8794 63.7462 25.7507 63.6257 25.5998C62.9165 24.7111 59.5479 19.3052 57.9522 16.7133C57.7158 16.1843 57.5267 15.0629 58.6614 14.809L61.4981 13.2222L61.8528 13.6982Z" fill="#9E90CD"/>
<path d="M63.9803 25.9887C64.5438 26.5231 65.0251 26.5958 65.2214 26.5519L68.9446 24.489L61.8528 13.6982L61.4981 13.2222L58.6614 14.809C57.5267 15.0629 57.7158 16.1843 57.9522 16.7133C59.5479 19.3052 62.9165 24.7111 63.6257 25.5998C63.7462 25.7507 63.8649 25.8794 63.9803 25.9887ZM63.9803 25.9887L56.7111 30.5191C56.5338 30.7307 55.4701 31.0269 52.6333 30.5191L46.9598 28.6792M41.6409 22.9021C39.2297 23.7907 39.8089 25.7056 40.3999 26.5519L44.3004 27.8168M41.6409 22.9021L46.9598 24.1596M41.6409 22.9021H39.3361C38.9106 24.4255 37.504 25.3353 36.8539 25.5998V39.2469M51.0376 25.1237L46.9598 24.1596M46.9598 24.1596V20.2044H34.5491C34.2536 20.1515 33.6626 20.3314 33.6626 21.4739V39.2469M33.6626 39.2469H36.8539M33.6626 39.2469H20.3654V43.6901H22.3156M36.8539 39.2469H44.3004M44.3004 27.8168V39.2469M44.3004 27.8168L46.9598 28.6792M44.3004 39.2469H46.9598M46.9598 39.2469V28.6792M46.9598 39.2469H61.4981V43.6901H58.8387M22.3156 43.6901V66.3824M22.3156 43.6901H58.8387M22.3156 66.3824H19.8335V71.7777H61.4981V67.0171H58.8387V66.3824M22.3156 66.3824H58.8387M58.8387 43.6901V66.3824M35.7902 47.4986C34.1354 48.0804 31.0032 50.6089 31.7123 56.0677C32.3624 58.6067 35.4001 63.7164 42.3501 63.8434C43.8276 64.0021 47.6335 63.0182 51.0376 57.8133C48.5555 58.7125 42.5983 59.781 38.6269 56.8611C37.0903 55.8032 34.3718 52.4496 35.7902 47.4986ZM42.3501 49.7202L43.7685 47.0225L45.7187 49.7202H48.5555L46.4279 51.9418L47.4917 55.4329L44.3004 53.8461L40.7545 55.4329L41.6409 51.9418L39.3361 49.7202H42.3501Z" stroke="white" stroke-width="1.5"/>
<path d="M57.6112 16.9616L55.8403 17.7821C53.6563 17.4175 48.757 16.5787 46.632 16.1411C44.507 15.7035 41.2605 17.0528 39.9028 17.7821L37.7778 19.8334" stroke="white" stroke-width="1.5"/>
</svg>
