<svg width="85" height="85" viewBox="0 0 85 85" fill="none" xmlns="http://www.w3.org/2000/svg">
<circle cx="42.5" cy="42.5" r="42.5" fill="#F9BFE8"/>
<path d="M42.5073 53.3416V61.2919" stroke="white" stroke-width="1.5"/>
<path d="M49.2861 53.3416V56.5714H54.2572V61.2919" stroke="white" stroke-width="1.5"/>
<path d="M59.4541 52.0994H64.6511V56.8199" stroke="white" stroke-width="1.5"/>
<path d="M35.7289 53.5901V56.5715H30.7578V61.292" stroke="white" stroke-width="1.5"/>
<path d="M25.5609 52.0994H20.5898V56.5714" stroke="white" stroke-width="1.5"/>
<path d="M40.4738 39.6771L18.33 29.4907C16.1608 28.4929 17.1249 27.253 17.8781 26.7577L40.6998 16.5714C42.3267 15.7764 44.0891 16.0745 44.767 16.323L67.3627 26.7578C68.9896 28.9441 67.5887 29.6563 66.6848 29.7392V39.1802H64.1993V31.2298L45.6708 39.1802C44.4055 40.3727 41.6789 40.0083 40.4738 39.6771Z" stroke="white" stroke-width="1.5" stroke-linecap="round" stroke-linejoin="round"/>
<circle cx="65.6386" cy="42.028" r="2.55556" stroke="white" stroke-width="1.5"/>
<path d="M20.5889 57.3215C21.8564 57.3215 23.0029 58.4747 23.0029 60.05C23.0028 61.6253 21.8563 62.7786 20.5889 62.7786C19.3216 62.7784 18.1759 61.6251 18.1758 60.05C18.1758 58.4748 19.3215 57.3217 20.5889 57.3215Z" stroke="white" stroke-width="1.5"/>
<path d="M30.9834 61.7937C32.2509 61.7937 33.3975 62.9469 33.3975 64.5222C33.3973 66.0974 32.2508 67.2507 30.9834 67.2507C29.7161 67.2505 28.5704 66.0973 28.5703 64.5222C28.5703 62.947 29.716 61.7939 30.9834 61.7937Z" stroke="white" stroke-width="1.5"/>
<path d="M42.7334 61.7937C44.0009 61.7937 45.1475 62.9469 45.1475 64.5222C45.1473 66.0974 44.0008 67.2507 42.7334 67.2507C41.4661 67.2505 40.3204 66.0973 40.3203 64.5222C40.3203 62.947 41.466 61.7939 42.7334 61.7937Z" stroke="white" stroke-width="1.5"/>
<path d="M54.4829 61.7937C55.7504 61.7937 56.897 62.9469 56.897 64.5222C56.8969 66.0974 55.7503 67.2507 54.4829 67.2507C53.2156 67.2505 52.0699 66.0973 52.0698 64.5222C52.0698 62.947 53.2155 61.7939 54.4829 61.7937Z" stroke="white" stroke-width="1.5"/>
<path d="M64.877 57.3215C66.1445 57.3215 67.291 58.4747 67.291 60.05C67.2909 61.6253 66.1444 62.7786 64.877 62.7786C63.6096 62.7784 62.464 61.6251 62.4639 60.05C62.4639 58.4748 63.6096 57.3217 64.877 57.3215Z" stroke="white" stroke-width="1.5"/>
<path d="M25.335 45.3914V35.7019L40.2481 42.1616C42.5981 43.1553 44.5413 42.5756 45.2192 42.1616L60.1324 35.7019V44.3976C59.9516 46.7827 58.8519 47.7102 58.3247 47.8759C57.4209 48.4721 51.7719 49.2837 49.0605 49.615H40.4741C37.5818 49.615 30.8333 48.4556 27.8205 47.8759C26.1936 47.4783 25.4856 46.0539 25.335 45.3914Z" stroke="white" stroke-width="1.5" stroke-linecap="round" stroke-linejoin="round"/>
</svg>
