<svg width="85" height="85" viewBox="0 0 85 85" fill="none" xmlns="http://www.w3.org/2000/svg">
<circle cx="42.5" cy="42.5" r="42.5" fill="#8CB3F6"/>
<path d="M39.4634 22.9528L41.2418 21.0129L42.7979 22.9528H46.3546V25.7548L48.3553 27.6946L46.3546 29.85V32.6519H42.7979L41.2418 34.8073L39.4634 32.6519H36.129V29.85L34.3506 27.6946L36.129 25.7548V22.9528H39.4634Z" fill="#8CB3F6" stroke="white" stroke-width="1.5"/>
<path d="M41.6865 16.8057C48.0466 16.8058 53.1631 21.799 53.1631 27.9102C53.1631 34.0213 48.0466 39.0145 41.6865 39.0146C35.3263 39.0146 30.21 34.0214 30.21 27.9102C30.21 21.799 35.3263 16.8057 41.6865 16.8057Z" stroke="white" stroke-width="1.5"/>
<path d="M17.0114 66.2758V43.6444C17.0114 42.7823 17.9006 42.5667 18.3452 42.5667H24.7918C25.8588 42.5667 26.1256 43.2852 26.1256 43.6444L26.1531 46.4464L32.7945 45.7998C34.0542 45.8716 36.7958 46.1878 37.685 46.8775C39.167 47.5959 42.2644 49.0329 42.7979 49.0329H47.9107C48.6517 49.2484 50.356 50.1536 51.2452 52.0504V55.0679V55.7145L64.1384 42.9978C66.065 42.1357 69.6958 41.7046 68.8066 46.8775L51.912 64.767C51.6157 64.9826 50.5338 65.4568 48.5776 65.6292H26.3415L26.3479 66.2758C26.3479 67.6553 25.7551 68.0001 25.4587 68.0001H18.7898C17.1893 68.0001 16.9373 66.8506 17.0114 66.2758Z" fill="#8CB3F6"/>
<path d="M26.1531 46.4464L26.1256 43.6444C26.1256 43.2852 25.8588 42.5667 24.7918 42.5667H18.3452C17.9006 42.5667 17.0114 42.7823 17.0114 43.6444V66.2758C16.9373 66.8506 17.1893 68.0001 18.7898 68.0001H25.4587C25.7551 68.0001 26.3479 67.6553 26.3479 66.2758L26.3415 65.6292M26.1531 46.4464L32.7945 45.7998C34.0542 45.8716 36.7958 46.1878 37.685 46.8775C39.167 47.5959 42.2644 49.0329 42.7979 49.0329H47.9107C48.6517 49.2484 50.356 50.1536 51.2452 52.0504V55.0679V55.7145M26.1531 46.4464L26.3415 65.6292M51.2452 55.7145H39.4634M51.2452 55.7145L64.1384 42.9978C66.065 42.1357 69.6958 41.7046 68.8066 46.8775L51.912 64.767C51.6157 64.9826 50.5338 65.4568 48.5776 65.6292H26.3415" stroke="white" stroke-width="1.5"/>
</svg>
