<svg width="85" height="85" viewBox="0 0 85 85" fill="none" xmlns="http://www.w3.org/2000/svg">
<circle cx="42.5" cy="42.5" r="42.5" fill="#B1BAC3"/>
<path d="M35.4889 26.7928L44.3321 17L53.1753 26.7928H48.5615V37.8629H40.4872V26.7928H35.4889Z" fill="#B1BAC3"/>
<path d="M55.4822 28.9217H65.0944C66.1197 28.6378 67.8627 28.8365 66.6324 31.9021L58.9426 51.9135H29.3371L22.8008 22.5351C22.8008 21.8254 22.2625 20.4062 20.1094 20.4062C17.9563 20.4062 15.8801 20.4062 15.1111 20.4062M44.3321 17L35.4889 26.7928H40.4872V37.8629H48.5615V26.7928H53.1753L44.3321 17Z" stroke="white" stroke-width="1.5"/>
<path d="M27.7991 43.8237H61.6339" stroke="white" stroke-width="1.5"/>
<path d="M38.1804 62.1321L53.5599 62.1321" stroke="white" stroke-width="1.5"/>
<path d="M65.4791 34.8823H52.791" stroke="white" stroke-width="1.5"/>
<path d="M38.5648 34.8823H25.8767" stroke="white" stroke-width="1.5"/>
<path d="M33.5666 28.0701H24.3389" stroke="white" stroke-width="1.5"/>
<path d="M33.5664 51.9133V34.8823" stroke="white" stroke-width="1.5"/>
<path d="M44.332 40.8434L44.332 51.9136" stroke="white" stroke-width="1.5"/>
<path d="M55.8667 51.9133L55.8667 34.8823" stroke="white" stroke-width="1.5"/>
<path d="M29.3369 51.9136L30.8749 58.3002" stroke="white" stroke-width="1.5"/>
<path d="M57.7891 56.9211C60.0652 56.9211 62.0381 58.9898 62.0381 61.7063C62.038 64.4228 60.0652 66.4915 57.7891 66.4915C55.5131 66.4913 53.5411 64.4227 53.541 61.7063C53.541 58.9899 55.513 56.9213 57.7891 56.9211Z" fill="#B1BAC3"/>
<path d="M57.7891 56.9211C60.0652 56.9211 62.0381 58.9898 62.0381 61.7063C62.038 64.4228 60.0652 66.4915 57.7891 66.4915C55.5131 66.4913 53.5411 64.4227 53.541 61.7063C53.541 58.9899 55.513 56.9213 57.7891 56.9211Z" stroke="white" stroke-width="1.5"/>
<path d="M57.7891 56.9211C60.0652 56.9211 62.0381 58.9898 62.0381 61.7063C62.038 64.4228 60.0652 66.4915 57.7891 66.4915C55.5131 66.4913 53.5411 64.4227 53.541 61.7063C53.541 58.9899 55.513 56.9213 57.7891 56.9211Z" stroke="white" stroke-width="1.5"/>
<path d="M57.7891 56.9211C60.0652 56.9211 62.0381 58.9898 62.0381 61.7063C62.038 64.4228 60.0652 66.4915 57.7891 66.4915C55.5131 66.4913 53.5411 64.4227 53.541 61.7063C53.541 58.9899 55.513 56.9213 57.7891 56.9211Z" stroke="white" stroke-width="1.5"/>
<path d="M57.7891 56.9211C60.0652 56.9211 62.0381 58.9898 62.0381 61.7063C62.038 64.4228 60.0652 66.4915 57.7891 66.4915C55.5131 66.4913 53.5411 64.4227 53.541 61.7063C53.541 58.9899 55.513 56.9213 57.7891 56.9211Z" stroke="white" stroke-width="1.5"/>
<path d="M57.7891 56.9211C60.0652 56.9211 62.0381 58.9898 62.0381 61.7063C62.038 64.4228 60.0652 66.4915 57.7891 66.4915C55.5131 66.4913 53.5411 64.4227 53.541 61.7063C53.541 58.9899 55.513 56.9213 57.7891 56.9211Z" stroke="white" stroke-width="1.5"/>
<path d="M33.5664 57.7727C36.0549 57.7727 38.1992 60.032 38.1992 62.9836C38.1992 65.9353 36.0549 68.1946 33.5664 68.1946C31.0779 68.1946 28.9336 65.9353 28.9336 62.9836C28.9336 60.032 31.0779 57.7727 33.5664 57.7727Z" fill="#B1BAC3" stroke="white" stroke-width="1.5"/>
</svg>
