<svg width="35" height="36" viewBox="0 0 35 36" fill="none" xmlns="http://www.w3.org/2000/svg">
<path d="M10.6838 26.8842C10.2064 27.2848 9.793 27.4834 9.36254 27.4792C8.37064 27.4691 7.54439 26.4546 5.89191 24.4256L3.68258 21.7127C2.77274 20.5956 2.66143 18.9322 3.41253 17.677C4.27049 16.2433 5.91592 15.8417 7.19827 16.5611M15.928 12.8959C17.0817 11.6794 18.3129 10.4637 19.6557 9.23078C20.3035 8.63598 21.111 8.42531 21.8748 8.55997" stroke="#141B34" stroke-width="2" stroke-linecap="round"/>
<path d="M20.571 24.2869C23.8667 20.467 27.0482 17.8755 31.0446 14.2057C32.2407 13.1073 32.4255 11.1819 31.487 9.81777C30.4898 8.368 28.5947 8.07823 27.3121 9.23078C23.6514 12.5201 20.8034 15.6873 18.1019 19.0725C17.9601 19.2501 17.8892 19.3389 17.8156 19.389C17.6291 19.5157 17.3959 19.5171 17.2082 19.3925C17.1341 19.3433 17.0631 19.2561 16.9211 19.082L15.4815 17.3162C14.168 15.7051 11.812 15.8834 10.7153 17.677C9.94786 18.9322 10.0616 20.5956 10.9913 21.7127L13.2487 24.4256C14.9371 26.4546 15.7814 27.4691 16.7949 27.4792C17.8085 27.4891 18.7292 26.4216 20.571 24.2869Z" stroke="#141B34" stroke-width="2"/>
</svg>
