<svg width="85" height="85" viewBox="0 0 85 85" fill="none" xmlns="http://www.w3.org/2000/svg">
<circle cx="42.5" cy="42.5" r="42.5" fill="#B4E0C5"/>
<path d="M40.5116 66.2621L44.0657 68.5927C44.6581 68.7562 46.1982 68.9607 47.6198 68.47C47.9843 68.2247 48.604 67.4396 48.1666 66.2621M48.1666 66.2621L42.8355 62.8275M48.1666 66.2621C48.8956 66.5074 50.5724 66.8509 51.4473 66.2621C51.903 65.8532 52.7322 64.8146 52.4042 63.9315C52.4497 63.6452 51.9941 62.7294 49.8069 61.3555L45.5694 58.9022L53.2243 63.3181C53.9534 63.5635 55.5755 63.8088 56.2317 62.8275C56.5962 62.4595 57.1612 61.3555 56.505 59.8836M56.505 59.8836L47.6198 54.4863M56.505 59.8836C57.3708 59.8427 59.1843 59.5892 59.5124 58.9022C59.8313 58.4116 60.2779 57.1359 59.5124 55.9583M59.5124 55.9583L46.1162 47.8625L41.1951 47.7398C40.4205 48.4758 38.7072 49.9723 38.0511 50.0704C37.5043 50.4793 36.0827 51.1744 34.7704 50.6838C34.2236 50.5202 32.9933 50.0704 32.4466 49.5798L35.1805 46.0225C35.4539 45.6954 36.3014 44.9186 37.5043 44.4279L38.3759 44.1825M59.5124 55.9583C61.6995 55.2714 63.6132 53.873 64.2967 53.2597M56.505 42.8333L56.2317 43.0786C54.5913 43.5692 51.265 43.1195 49.8069 42.8333C48.0572 42.0482 45.5238 42.2608 44.4758 42.4653L38.3759 44.1825M56.505 42.8333L55.1381 40.9933L58.5555 38.2947M56.505 42.8333L64.2967 53.2597M64.2967 53.2597L65.2536 54.7316L68.9444 52.033M38.3759 44.1825C36.8551 44.2643 33.5401 44.2316 32.4466 43.4466L29.7126 42.4653" stroke="white" stroke-width="1.4" stroke-linecap="round" stroke-linejoin="round"/>
<path d="M20.5542 29.095H65.5272" stroke="white" stroke-width="1.4"/>
<path d="M27.6623 38.2947L30.8063 40.8706L22.0861 52.769M17 51.9104L20.8275 54.4863L22.0861 52.769M22.0861 52.769C22.2133 53.505 23.0693 55.394 25.4751 57.0623" stroke="white" stroke-width="1.4" stroke-linecap="round" stroke-linejoin="round"/>
<path d="M43.1134 14.4111C42.7268 14.4086 42.4114 14.72 42.4089 15.1066C42.4064 15.4932 42.7178 15.8086 43.1044 15.8111L43.1134 14.4111ZM43.1089 15.1111L43.1044 15.8111C46.1915 15.8309 51.0747 16.7027 55.6006 19.2565C60.1091 21.8004 64.2475 26.0013 65.9419 32.701L66.6206 32.5294L67.2992 32.3577C65.4942 25.221 61.0664 20.7331 56.2886 18.0372C51.5284 15.3512 46.4054 14.4322 43.1134 14.4111L43.1089 15.1111Z" fill="white"/>
<path d="M18.7899 32.3285C18.6789 32.6988 18.8891 33.089 19.2595 33.2C19.6298 33.311 20.02 33.1007 20.131 32.7304L18.7899 32.3285ZM42.9721 15.2338L42.991 14.5341C36.7615 14.366 23.1818 17.6758 18.7899 32.3285L19.4604 32.5294L20.131 32.7304C24.2689 18.925 37.0624 15.7746 42.9533 15.9336L42.9721 15.2338Z" fill="white"/>
<path d="M28.74 35.567C28.7241 35.9533 29.0243 36.2793 29.4106 36.2953C29.7969 36.3112 30.1229 36.011 30.1389 35.6247L28.74 35.567ZM43.109 15.2336L43.0823 14.5342C38.3731 14.714 29.4086 19.3696 28.74 35.567L29.4395 35.5958L30.1389 35.6247C30.7826 20.0276 39.2787 16.0804 43.1358 15.9331L43.109 15.2336Z" fill="white"/>
<path d="M43.1089 15.3563L43.0507 14.6587L42.4089 14.7123V15.3563H43.1089ZM42.4089 36.8225C42.4089 37.2091 42.7223 37.5225 43.1089 37.5225C43.4955 37.5225 43.8089 37.2091 43.8089 36.8225H42.4089ZM43.1089 15.3563H42.4089V36.8225H43.1089H43.8089V15.3563H43.1089ZM43.1089 15.3563L43.1671 16.0538C46.5475 15.7717 54.5977 18.8896 56.2184 35.6631L56.9152 35.5958L57.6119 35.5285C55.952 18.3487 47.5075 14.2867 43.0507 14.6587L43.1089 15.3563Z" fill="white"/>
<rect x="1.0325" y="-0.128316" width="7.34943" height="2.88596" rx="1.44298" transform="matrix(0.654978 -0.755648 0.820017 0.572339 23.3882 60.8098)" stroke="white" stroke-width="1.4"/>
<rect x="1.0325" y="-0.128316" width="9.86262" height="3.88769" rx="1.94385" transform="matrix(0.654978 -0.755648 0.820017 0.572339 25.9287 63.9175)" stroke="white" stroke-width="1.4"/>
<rect x="1.0325" y="-0.128316" width="8.82896" height="3.40806" rx="1.70403" transform="matrix(0.654978 -0.755648 0.820017 0.572339 30.0308 66.3755)" stroke="white" stroke-width="1.4"/>
<rect x="1.0325" y="-0.128316" width="5.98611" height="2.93972" rx="1.46986" transform="matrix(0.654978 -0.755648 0.820017 0.572339 34.7429 68.1304)" stroke="white" stroke-width="1.4"/>
</svg>
