<svg width="175" height="49" viewBox="0 0 175 49" fill="none" xmlns="http://www.w3.org/2000/svg">
<path d="M167.841 35.4171H162.78C161.733 35.4171 160.859 34.7237 160.859 33.857C160.859 32.8169 161.733 32.2968 162.78 32.2968H172.028L174.124 27.62H162.78C158.069 27.62 155.45 30.39 155.45 34.0303C155.45 37.6706 158.069 40.0939 162.082 40.0939H167.142C168.19 40.0939 169.063 40.7873 169.063 41.654C169.063 42.5208 168.365 43.2142 167.142 43.2142H155.974V47.891H167.142C171.854 47.891 174.473 45.121 174.473 41.3074C174.473 37.4937 172.028 35.4171 167.841 35.4171ZM147.424 35.4171H142.364C141.316 35.4171 140.443 34.7237 140.443 33.857C140.443 32.8169 141.316 32.2968 142.364 32.2968H151.611L153.707 27.62H142.364C137.652 27.62 135.037 30.39 135.037 34.0303C135.037 37.6706 137.652 40.0939 141.669 40.0939H146.729C147.777 40.0939 148.65 40.7873 148.65 41.654C148.65 42.5208 147.952 43.2142 146.729 43.2142H135.56V47.891H146.729C151.441 47.891 154.056 45.121 154.056 41.3074C154.231 37.4973 151.79 35.4171 147.424 35.4171ZM115.144 48.0607H132.595V43.3839H120.728V40.0939H132.421V35.4171H120.728V32.1271H132.595V27.4503H115.144V48.0643V48.0607ZM104.324 36.2839H98.5651V32.1271H104.324C105.896 32.1271 106.769 33.1672 106.769 34.2073C106.769 35.4207 105.896 36.2875 104.324 36.2875M112.35 34.0339C112.35 30.0505 109.556 27.4503 105.019 27.4503H92.9771V48.0643H98.5615V40.9643H100.657L106.94 48.0643H113.572L106.765 40.6176C110.254 39.7508 112.35 37.3276 112.35 34.0339ZM82.5104 36.6342H76.5768V32.1307H82.5104C84.0821 32.1307 84.9552 33.1708 84.9552 34.3842C84.9552 35.5977 84.2567 36.6378 82.5104 36.6378M83.2089 27.4575H71.167V48.0716H76.7514V41.3146H83.2089C87.9202 41.3146 90.7142 38.3713 90.7142 34.3842C90.5396 30.2275 87.7492 27.4539 83.2089 27.4539M70.1229 27.4539H62.9705L57.7353 33.6909L52.3256 27.4539H44.9949L54.2428 37.6743L44.8203 48.0679H51.9727L57.5571 41.4843L63.1415 48.0679H70.4685L61.046 37.5009L70.1192 27.4539H70.1229ZM26.6737 48.0679H44.1218V43.3911H32.0798V40.1011H43.7725V35.4243H32.0798V32.1343H44.1218V27.4575H26.6737V48.0716V48.0679ZM165.745 13.5897L157.196 1.11939H150.214V21.5601H155.799V8.56616L164.523 21.5565H171.155V1.11939H165.745V13.5933V13.5897ZM133.636 12.8963L136.601 5.96593L139.566 12.8963H133.632H133.636ZM132.937 1.11578L123.864 21.7298H129.972L131.719 17.5731H141.316L143.062 21.7298H149.345L140.097 1.11939H132.941L132.937 1.11578ZM114.791 11.5095V11.1628C114.791 8.04611 116.537 5.96593 120.026 5.96593H126.134V0.946045H119.502C112.695 0.946045 109.206 5.27615 109.206 10.993V11.3397C109.206 17.75 113.219 21.3867 119.327 21.3867H121.248L123.515 16.7099H120.201C116.886 16.8833 114.791 14.9764 114.791 11.5131M100.832 21.5601H106.416V1.11939H100.832V21.5601ZM90.0121 9.7796H84.2531V5.62284H90.0121C91.5837 5.62284 92.4569 6.66293 92.4569 7.70302C92.4569 8.91646 91.5837 9.78321 90.0121 9.78321M98.0376 7.70302C98.0376 3.71962 95.2436 1.11939 90.7106 1.11939H78.6687V21.7334H84.2531V14.46H86.3486L92.6315 21.5637H99.4383L92.4605 14.1169C95.9494 13.4235 98.0449 10.8269 98.0449 7.70664M57.5607 21.5637H75.0088V16.8869H63.1415V13.5969H74.6595V8.92008H63.1415V5.63007H75.0088V1.11939H57.5607V21.5601V21.5637ZM39.938 13.94L35.2231 1.11939H26.6737V21.5601H32.0835V6.83628L37.4932 21.5601H42.3791L47.7889 6.83628V21.5601H53.3733V1.11939H44.6493L39.938 13.9363V13.94ZM9.92412 12.8999L12.8891 5.96954L15.8541 12.8999H9.92048H9.92412ZM9.22197 1.11939L0.148682 21.5601H6.25696L8.00323 17.4033H17.6004L19.3467 21.5601H25.6296L16.378 1.11939H9.22197Z" fill="#006FCF"/>
</svg>
