<svg width="159" height="37" viewBox="0 0 159 37" fill="none" xmlns="http://www.w3.org/2000/svg">
<path d="M153.993 27.2328C151.494 27.2423 149.475 29.2757 149.484 31.7747C149.484 31.7779 149.484 31.7804 149.484 31.7829C149.47 34.2819 151.485 36.3191 153.984 36.3331C153.986 36.3331 153.989 36.3331 153.992 36.3331C156.478 36.3331 158.5 34.2946 158.5 31.7829C158.514 29.284 156.5 27.2468 154.001 27.2328C153.998 27.2328 153.995 27.2328 153.993 27.2328ZM139.157 23.7187C139.157 20.2764 136.244 17.4897 132.649 17.4897C129.054 17.4897 126.14 20.2809 126.14 23.7187C126.14 27.1566 129.058 29.944 132.653 29.944C136.247 29.944 139.157 27.1572 139.157 23.7187H139.157ZM139.183 11.6112H146.363V35.8217H139.183V34.2737C137.089 35.7188 134.605 36.4919 132.061 36.4894C125.071 36.4894 119.404 30.7717 119.404 23.7181C119.404 16.6645 125.071 10.9468 132.061 10.9468C134.704 10.9468 137.153 11.7631 139.183 13.1625V11.6106V11.6112ZM81.7034 14.7658V11.6151H74.3494V35.8211H81.7206V24.5172C81.7206 20.7026 85.814 18.6559 88.656 18.6559H88.7405V11.6151C85.8222 11.6151 83.1454 12.8754 81.7034 14.7658ZM63.384 23.7187C63.384 20.2764 60.4702 17.4897 56.8755 17.4897C53.2807 17.4897 50.3669 20.2809 50.3669 23.7187C50.3669 27.1566 53.2852 29.944 56.8793 29.944C60.4734 29.944 63.3834 27.1572 63.3834 23.7187H63.384ZM63.4095 11.6112H70.5945V35.8217H63.4095V34.2737C61.3793 35.6693 58.9311 36.4894 56.2879 36.4894C49.2972 36.4894 43.631 30.7717 43.631 23.7181C43.631 16.6645 49.2978 10.9468 56.2879 10.9468C58.9311 10.9468 61.3793 11.7631 63.4095 13.1625V11.6106V11.6112ZM106.642 10.9639C103.774 10.9639 101.059 11.8603 99.2415 14.3389V11.6157H92.0907V35.8217H99.3304V23.1013C99.3304 19.422 101.775 17.6161 104.722 17.6161C107.877 17.6161 109.695 19.5192 109.695 23.0505V35.8217H116.868V20.4282C116.868 14.795 112.428 10.9639 106.643 10.9639H106.642ZM33.1687 35.8217H40.6879V0.827594H33.1687V35.8217ZM0.14126 35.83H8.10449V0.819336H0.145072L0.140625 35.8306L0.14126 35.83ZM27.9923 0.819336C27.9923 8.39762 25.0657 15.4512 19.8473 20.6912L30.8508 35.8306H21.0187L9.06369 19.3801L12.1509 17.0456C17.2467 13.2127 20.2297 7.19577 20.1942 0.819336H27.9923Z" fill="#0A0B09"/>
</svg>
