<svg width="119" height="42" viewBox="0 0 119 42" fill="none" xmlns="http://www.w3.org/2000/svg">
<path d="M94.4239 4.89306L104.242 3.13445V40.8248H94.4239V4.89306ZM108.758 4.89306V40.8248H118.581V3.13445L108.758 4.89306ZM80.4383 40.8248H90.2615V13.2594H80.4383V40.8248ZM15.5312 17.1565C14.2877 17.0732 11.4156 16.8911 11.4156 14.3C11.4156 11.1783 15.552 11.1783 17.1077 11.1783C19.8392 11.1783 23.3721 11.9847 25.8955 12.7391C25.8955 12.7391 27.3055 13.2334 28.5022 13.7433L28.6115 13.7745V5.22605L28.4606 5.17922C25.4845 4.13863 22.0193 3.13445 15.5988 3.13445C4.52168 3.13445 0.598633 9.58614 0.598633 15.1117C0.598633 18.2959 1.96181 25.7934 14.6415 26.6571C15.7185 26.7247 18.5697 26.886 18.5697 29.5604C18.5697 31.7664 16.2336 33.0724 12.3053 33.0724C8.00247 33.0724 3.82448 31.9745 1.28543 30.934V39.7426C5.0836 40.7364 9.36044 41.2358 14.3813 41.2358C25.2087 41.2358 30.0579 35.1328 30.0579 29.0869C30.0579 22.2294 24.6312 17.7756 15.5312 17.1617V17.1565ZM74.9075 12.8536C65.8283 13.145 61.2237 17.2189 61.2237 25.3147V40.8248H71.1302V28.1764C71.1302 23.3272 71.7649 21.2512 77.5194 21.0535V12.9993C76.5517 12.7912 74.9127 12.8588 74.9127 12.8588L74.9075 12.8536ZM48.2631 13.2282C48.0446 13.7797 46.4733 18.2179 42.6699 22.8225V3.13445L32.5345 5.1376V40.8248H42.6699V29.7945C45.6044 34.1962 47.056 40.8248 47.056 40.8248H59.1945C57.9927 35.8352 52.7429 26.6259 52.7429 26.6259C57.4568 20.6477 59.5275 14.2792 59.8553 13.223H48.2631V13.2282ZM85.3551 10.6163C88.0294 10.6163 90.1991 8.45189 90.1991 5.77756C90.1991 3.10324 88.0294 0.933594 85.3551 0.933594C82.6808 0.933594 80.5163 3.10324 80.5163 5.77756C80.5163 8.45189 82.686 10.6163 85.3551 10.6163Z" fill="#862165"/>
</svg>
