<svg width="187" height="75" viewBox="0 0 187 75" fill="none" xmlns="http://www.w3.org/2000/svg">
<path d="M120.667 18.2014C127.976 18.2014 134.867 24.9784 134.909 37.4163C134.909 51.0119 128.101 57.1877 120.625 57.1877C116.95 57.1876 114.736 55.6007 113.232 54.4856L113.191 66.6233L102.75 68.8967V18.8879H111.938L112.481 21.5471C113.943 20.1747 116.574 18.2015 120.667 18.2014ZM31.5818 18.2014C35.0481 18.2014 38.4729 18.7589 41.9392 20.1741V30.2532C38.7651 28.4949 34.7559 27.5081 31.5818 27.5081C29.3682 27.5081 28.031 28.1518 28.031 29.8245C28.031 34.628 43.9443 32.355 43.9861 45.136C43.9861 52.8131 38.0132 57.2307 29.3259 57.2307C25.7341 57.2307 21.8077 56.5019 17.9236 54.7864V44.5784C21.4319 46.5512 25.8594 48.009 29.3259 48.009C31.6648 48.009 33.3357 47.3657 33.3357 45.3928C33.3347 40.2896 17.4646 42.1762 17.4646 30.3391C17.4646 22.7478 23.1033 18.2014 31.5818 18.2014ZM56.2224 18.9309H64.158V28.0657H56.2224V43.2913C56.2224 49.6387 62.8212 47.6663 64.158 47.1086V55.8157C62.7797 56.5876 60.2738 57.2307 56.8494 57.2307C50.668 57.2307 46.032 52.5558 46.032 46.2083L46.073 11.8538L56.2644 9.62329L56.2224 18.9309ZM152.744 18.2014C162.642 18.2016 167.821 26.8655 167.821 37.845C167.821 38.8744 167.737 41.1048 167.737 41.6624H147.314C147.774 46.7229 151.366 48.1809 155.417 48.1809C159.551 48.1809 162.809 47.2807 165.649 45.8225V54.3997C162.809 56.0294 159.05 57.1877 154.08 57.1877C143.889 57.1876 136.789 50.6685 136.789 37.759C136.789 26.8652 142.804 18.2014 152.744 18.2014ZM77.1482 22.1047C79.6124 17.4727 84.4992 18.4162 85.8357 18.9309V28.7952C84.541 28.3234 80.3643 27.7233 77.9001 31.0256V56.4583H67.4587V18.9309H76.4792L77.1482 22.1047ZM98.865 56.4583H88.3816V18.9309H98.865V56.4583ZM118.161 27.7229C115.78 27.7229 114.277 28.5807 113.191 29.8245L113.233 45.7366C114.235 46.8514 115.697 47.7521 118.161 47.7522C122.003 47.7522 124.592 43.4631 124.593 37.7161C124.593 32.0976 121.962 27.7229 118.161 27.7229ZM152.702 26.9075C150.071 26.9075 147.188 28.9235 147.188 33.7698H157.964C157.964 28.9238 155.249 26.9077 152.702 26.9075ZM98.866 13.3547L88.3826 15.6711V6.92212L98.866 4.64868V13.3547Z" fill="#6461FC"/>
</svg>
