<svg width="177" height="39" viewBox="0 0 177 39" fill="none" xmlns="http://www.w3.org/2000/svg">
<path fill-rule="evenodd" clip-rule="evenodd" d="M176.797 38.6015H175.231V0.556885H176.797V38.6015Z" fill="#231F20"/>
<path fill-rule="evenodd" clip-rule="evenodd" d="M157.855 38.4848H156.289V0.440186H157.855V38.4848Z" fill="#231F20"/>
<path fill-rule="evenodd" clip-rule="evenodd" d="M11.7481 17.4596L13.3248 6.48074L14.9236 17.4596H22.6088L26.3466 0.514404H20.3264L18.6725 11.2284L17.0296 0.514404H9.69726L8.04334 10.9422L6.42251 0.514404H0.148682L3.93062 17.4596H11.7481Z" fill="#231F20"/>
<path fill-rule="evenodd" clip-rule="evenodd" d="M29.3567 17.4596H44.6719V13.0511H36.9537V11.0482H44.2309V6.69269H36.9537V4.86993H44.4183V0.514404H29.3567V17.4596Z" fill="#231F20"/>
<path fill-rule="evenodd" clip-rule="evenodd" d="M47.9576 12.0125C47.9355 12.2245 47.9355 12.4364 47.9355 12.6272C47.9355 15.8594 50.9787 17.7457 56.7233 17.7457C62.4679 17.7457 65.467 15.8064 65.467 12.2245C65.467 9.14065 63.6587 8.21868 59.1601 6.76684C56.7564 5.98263 55.3561 6.02502 55.3561 4.84871C55.3561 4.21286 55.7751 3.74658 56.7895 3.74658C57.9803 3.74658 58.5536 4.49899 58.4985 5.61172H65.0039V4.9017C65.0039 1.91323 62.1922 0.101074 56.9879 0.101074C51.2764 0.101074 48.2443 2.23115 48.2443 5.55873C48.2443 7.94315 49.7769 9.32081 52.9414 10.1898C55.2569 10.8256 56.58 11.3555 57.5834 11.7794C58.1126 12.002 58.289 12.5106 58.2118 12.9875C58.1126 13.6445 57.6936 14.0472 56.6572 14.0472C55.3781 14.0472 55.0143 13.3054 55.0143 12.1503V12.0125H47.9686H47.9576Z" fill="#231F20"/>
<path fill-rule="evenodd" clip-rule="evenodd" d="M84.1341 0.514404H67.3745V5.03949H72.0385V17.4596H79.5032V5.03949H84.1341V0.514404Z" fill="#231F20"/>
<path fill-rule="evenodd" clip-rule="evenodd" d="M87.3428 17.4596H102.658V13.0511H94.9397V11.0482H102.151V6.69269H94.9397V4.86993H102.404V0.514404H87.3428V17.4596Z" fill="#231F20"/>
<path fill-rule="evenodd" clip-rule="evenodd" d="M107.322 17.4595H114.654V11.4296C114.897 11.4084 115.14 11.4084 115.327 11.4084C117.091 11.4084 117.345 12.0231 117.631 13.867L117.819 15.1175C117.929 15.8699 118.139 16.6541 118.392 17.4701H125.835C125.515 16.2196 125.261 15.2129 125.162 14.4499L124.92 12.6377C124.589 10.1897 123.619 9.26775 121.645 8.88625C123.652 8.40936 125.162 6.95752 125.162 4.92282C125.162 1.53165 122.935 0.524902 117.576 0.524902H107.311V17.4701L107.322 17.4595ZM114.654 7.26485V4.30817C114.985 4.28698 115.25 4.28698 115.492 4.28698C117.146 4.28698 117.874 4.66848 117.874 5.72822C117.874 6.78796 116.948 7.28604 115.195 7.28604C115.029 7.28604 114.842 7.28604 114.654 7.26485Z" fill="#231F20"/>
<path fill-rule="evenodd" clip-rule="evenodd" d="M135.284 7.79482L139.221 17.4596H147.744V0.514404H141.988V9.14068L138.735 0.514404H129.518V17.4596H135.284V7.79482Z" fill="#231F20"/>
<path fill-rule="evenodd" clip-rule="evenodd" d="M76.9453 28.0039L80.8817 37.6688H89.4048V20.7341H83.6382V29.3604L80.3855 20.7341H71.1787V37.6688H76.9453V28.0039Z" fill="#231F20"/>
<path fill-rule="evenodd" clip-rule="evenodd" d="M135.46 28.0039L139.397 37.6688H147.92V20.7341H142.164V29.3604L138.912 20.7341H129.705V37.6688H135.46V28.0039Z" fill="#231F20"/>
<path fill-rule="evenodd" clip-rule="evenodd" d="M48.3658 20.7341V30.9394C48.3658 32.8893 48.4981 34.426 50.0638 35.8884C51.6846 37.3932 54.0332 37.9655 57.3851 37.9655C63.5487 37.9655 66.4375 35.7506 66.4375 30.9394V20.7341H59.1162V31.2044C59.1162 32.5926 58.4656 33.345 57.3851 33.345C56.2494 33.345 55.654 32.635 55.654 31.2044V20.7341H48.3547H48.3658Z" fill="#231F20"/>
<path fill-rule="evenodd" clip-rule="evenodd" d="M101.71 20.7341H94.2012V37.6688H101.71V20.7341Z" fill="#231F20"/>
<path fill-rule="evenodd" clip-rule="evenodd" d="M115.459 37.9336C122.141 37.9336 125.714 34.8286 125.714 29.0742C125.714 23.3198 122.108 20.1936 115.702 20.1936C109.296 20.1936 105.613 23.4152 105.613 29.0954C105.613 34.7756 109.219 37.923 115.459 37.923V37.9336ZM115.68 24.1358C117.411 24.1358 117.819 25.6089 117.819 28.8093C117.819 32.3912 117.378 34.0232 115.647 34.0232C113.916 34.0232 113.508 32.423 113.508 29.159C113.508 25.736 113.894 24.1358 115.68 24.1358Z" fill="#231F20"/>
</svg>
