<svg width="30" height="18" viewBox="0 0 30 18" fill="none" xmlns="http://www.w3.org/2000/svg">
<path d="M0.158691 0H29.1587V18H0.158691V0Z" fill="#012169"/>
<path d="M3.55713 0L14.6134 6.7875L25.6243 0H29.1587V2.325L18.2837 9.0375L29.1587 15.7125V18H25.5337L14.6587 11.2875L3.829 18H0.158691V15.75L10.9884 9.075L0.158691 2.4V0H3.55713Z" fill="white"/>
<path d="M19.3712 10.5375L29.1587 16.5V18L16.879 10.5375H19.3712ZM11.0337 11.2875L11.3056 12.6L2.60557 18H0.158691L11.0337 11.2875ZM29.1587 0V0.1125L17.8759 7.1625L17.9665 5.5125L26.8931 0H29.1587ZM0.158691 0L10.9884 6.6H8.26963L0.158691 1.575V0Z" fill="#C8102E"/>
<path d="M11.079 0V18H18.329V0H11.079ZM0.158691 6V12H29.1587V6H0.158691Z" fill="white"/>
<path d="M0.158691 7.2375V10.8375H29.1587V7.2375H0.158691ZM12.529 0V18H16.879V0H12.529Z" fill="#C8102E"/>
</svg>
